# Blender 3.6.23
# www.blender.org
o Cube
v 1.000000 -1.879488 0.050433
v 1.000000 -5.285863 0.050433
v 1.000000 -1.879488 2.050433
v 1.000000 -5.285863 2.050433
v -1.000000 -1.879488 0.050433
v -1.000000 -5.285863 0.050433
v -1.000000 -1.879488 2.050433
v -1.000000 -5.285863 2.050433
v 1.000000 -0.199101 2.050433
v -1.000000 -0.199101 2.050433
v 1.000000 -0.199101 0.050433
v -1.000000 -0.199101 0.050433
v 1.000000 1.811294 2.050433
v -1.000000 1.811294 2.050433
v 1.000000 1.811294 0.050433
v -1.000000 1.811294 0.050433
v 1.000000 3.791205 2.050433
v -1.000000 3.791205 2.050433
v 1.000000 3.791205 0.050433
v -1.000000 3.791205 0.050433
v -1.000000 -1.879488 -2.009513
v 1.000000 -1.879488 -2.009513
v -1.000000 -0.199101 -2.009513
v 1.000000 -0.199101 -2.009513
v -1.000000 1.811294 -3.242653
v 1.000000 1.811294 -3.242653
v -1.000000 3.791205 -3.242653
v 1.000000 3.791205 -3.242653
vn -0.0000 -1.0000 -0.0000
vn -0.0000 -0.0000 1.0000
vn -1.0000 -0.0000 -0.0000
vn 1.0000 -0.0000 -0.0000
vn -0.0000 -0.0000 -1.0000
vn -0.0000 1.0000 -0.0000
vt 0.880209 0.548596
vt 0.989133 0.869387
vt 0.989133 0.548596
vt 0.130949 0.372841
vt 0.011652 -0.002432
vt 0.130949 -0.002432
vt 0.151184 0.409899
vt 0.442180 0.122282
vt 0.151184 0.122282
vt 0.842962 0.222687
vt 0.622627 0.002352
vt 0.622627 0.222687
vt 0.447719 0.411096
vt 0.151057 0.128418
vt 0.447719 0.128418
vt 0.853122 0.579733
vt 0.971714 0.258020
vt 0.853122 0.258020
vt 0.437686 0.835110
vt 0.596807 0.995059
vt 0.596807 0.835110
vt 0.011652 0.557965
vt 0.011652 0.372841
vt 0.442180 0.559606
vt 0.442180 0.409899
vt 0.151057 0.560171
vt 0.151057 0.411096
vt 0.447719 0.666646
vt 0.151057 0.825855
vt 0.151057 0.666646
vt 0.447719 0.560171
vt 0.151184 0.559606
vt 0.442180 0.668500
vt 0.130949 0.557965
vt 0.011652 0.779446
vt 0.000160 0.203640
vt 0.137514 0.001410
vt 0.137514 0.203640
vt 0.151184 0.668500
vt 0.442180 0.825284
vt 0.130949 0.779446
vt 0.011652 0.997568
vt 0.852873 0.825855
vt 0.447719 0.825855
vt 0.998238 0.005259
vt 0.001762 0.984678
vt 0.001762 0.005259
vt 0.794993 0.560171
vt 0.992877 0.842866
vt 0.876465 0.991601
vt 0.876465 0.842866
vt 0.792400 0.409899
vt 0.995406 0.005515
vt 0.007674 0.988695
vt 0.007674 0.005515
vt 0.852382 0.668500
vt 0.000160 0.536619
vt 0.862155 0.008080
vt 0.974449 0.370872
vt 0.974449 0.008080
vt 0.880209 0.869387
vt 0.842962 0.002352
vt 0.971714 0.579733
vt 0.437686 0.995059
vt 0.000160 0.001410
vt 0.151184 0.825284
vt 0.130949 0.997568
vt 0.852873 0.666646
vt 0.998238 0.984678
vt 0.794993 0.411096
vt 0.992877 0.991601
vt 0.792400 0.559606
vt 0.995406 0.988695
vt 0.852382 0.825284
vt 0.137514 0.536619
vt 0.862155 0.370872
s 0
f 5/1/1 22/2/1 1/3/1
f 3/4/2 8/5/2 4/6/2
f 7/7/3 6/8/3 8/9/3
f 2/10/1 8/11/1 6/12/1
f 1/13/4 4/14/4 2/15/4
f 5/16/5 2/17/5 6/18/5
f 12/19/5 15/20/5 11/21/5
f 3/4/2 10/22/2 7/23/2
f 7/7/3 12/24/3 5/25/3
f 1/13/4 9/26/4 3/27/4
f 15/28/4 17/29/4 13/30/4
f 11/31/4 13/30/4 9/26/4
f 10/32/3 16/33/3 12/24/3
f 9/34/2 14/35/2 10/22/2
f 20/36/6 17/37/6 19/38/6
f 14/39/3 20/40/3 16/33/3
f 13/41/2 18/42/2 14/35/2
f 15/28/4 28/43/4 19/44/4
f 21/45/5 24/46/5 22/47/5
f 1/13/4 24/48/4 11/31/4
f 11/49/6 23/50/6 12/51/6
f 12/24/3 21/52/3 5/25/3
f 25/53/5 28/54/5 26/55/5
f 20/40/3 25/56/3 16/33/3
f 19/38/6 27/57/6 20/36/6
f 16/58/1 26/59/1 15/60/1
f 5/1/1 21/61/1 22/2/1
f 3/4/2 7/23/2 8/5/2
f 7/7/3 5/25/3 6/8/3
f 2/10/1 4/62/1 8/11/1
f 1/13/4 3/27/4 4/14/4
f 5/16/5 1/63/5 2/17/5
f 12/19/5 16/64/5 15/20/5
f 3/4/2 9/34/2 10/22/2
f 7/7/3 10/32/3 12/24/3
f 1/13/4 11/31/4 9/26/4
f 15/28/4 19/44/4 17/29/4
f 11/31/4 15/28/4 13/30/4
f 10/32/3 14/39/3 16/33/3
f 9/34/2 13/41/2 14/35/2
f 20/36/6 18/65/6 17/37/6
f 14/39/3 18/66/3 20/40/3
f 13/41/2 17/67/2 18/42/2
f 15/28/4 26/68/4 28/43/4
f 21/45/5 23/69/5 24/46/5
f 1/13/4 22/70/4 24/48/4
f 11/49/6 24/71/6 23/50/6
f 12/24/3 23/72/3 21/52/3
f 25/53/5 27/73/5 28/54/5
f 20/40/3 27/74/3 25/56/3
f 19/38/6 28/75/6 27/57/6
f 16/58/1 25/76/1 26/59/1
